<?xml version="1.0" encoding="UTF-8" standalone="no"?>
<svg
   xmlns:dc="http://purl.org/dc/elements/1.1/"
   xmlns:cc="http://creativecommons.org/ns#"
   xmlns:rdf="http://www.w3.org/1999/02/22-rdf-syntax-ns#"
   xmlns:svg="http://www.w3.org/2000/svg"
   xmlns="http://www.w3.org/2000/svg"
   viewBox="0 0 1108 1314.6667"
   height="1314.6667"
   width="1108"
   xml:space="preserve"
   id="svg10"
   version="1.1"><metadata
     id="metadata16"><rdf:RDF><cc:Work
         rdf:about=""><dc:format>image/svg+xml</dc:format><dc:type
           rdf:resource="http://purl.org/dc/dcmitype/StillImage" /><dc:title></dc:title></cc:Work></rdf:RDF></metadata><defs
     id="defs14"><clipPath
       id="clipPath26"
       clipPathUnits="userSpaceOnUse"><path
         id="path24"
         d="M 71,896 V 34 l 124,230 h 314 c 162.128,8.897 255.845,115.507 255.065,316 v 0 C 764.845,780.493 671.128,887.103 509,896 v 0 h 11 z" /></clipPath><clipPath
       id="clipPath44"
       clipPathUnits="userSpaceOnUse"><path
         id="path42"
         d="M 0,986 H 831 V 0 H 0 Z" /></clipPath><clipPath
       id="clipPath56"
       clipPathUnits="userSpaceOnUse"><path
         id="path54"
         d="m 181,841 c -26.951,0 -49,-22.049 -49,-49 v 0 -416.835 c 0,-26.95 22.049,-49 49,-49 v 0 h 406 c 26.95,0 49,22.05 49,49 v 0 V 792 c 0,26.951 -22.05,49 -49,49 v 0 z" /></clipPath><linearGradient
       id="linearGradient66"
       spreadMethod="pad"
       gradientTransform="matrix(504,0,0,-504,132,583.58258)"
       gradientUnits="userSpaceOnUse"
       y2="0"
       x2="1"
       y1="0"
       x1="0"><stop
         id="stop62"
         offset="0"
         style="stop-opacity:1;stop-color:#5a0141" /><stop
         id="stop64"
         offset="1"
         style="stop-opacity:1;stop-color:#9d2871" /></linearGradient></defs><g
     id="layer1"><path
       style="display:inline;fill:#ffffff;fill-opacity:1;stroke-width:1"
       d="m 95,117.66674 v 368.00001 110 368 h 336 125 125 c 186.144,0 336,-164.12801 336,-368 v -110 C 1017,281.79475 867.144,117.66674 681,117.66674 H 556 431 Z"
       id="path1038" /><path
       id="rect904"
       d="m 95,117.66674 v 94.00001 H 905.74609 C 846.29625,153.17433 767.57469,117.66674 681,117.66674 Z m 0,188.00001 v 94 h 912.8437 c -7.2364,-33.34463 -18.58858,-64.90462 -33.44917,-94 z m 0,188 v 94 h 922 v -94 z m 0,188 v 94 h 879.39453 c 14.86059,-29.09539 26.21277,-60.65538 33.44917,-94 z m 0,188 v 94 h 586 c 86.57469,0 165.29625,-35.50759 224.74609,-94 z"
       style="display:inline;fill:#bcb8b3;fill-opacity:1;stroke-width:1" /></g><g
     style="display:inline"
     transform="matrix(1.3333333,0,0,-1.3333333,0,1314.6667)"
     id="g18"><path
       id="path6118"
       d="M 71.25,266.99997 H 195 L 71.25,34.499965 Z"
       style="fill:#bcb8b3;fill-opacity:1;stroke-width:0.78529894" /></g><g
     id="layer2"><g
   id="g20"
   style="display:inline"
   transform="matrix(1.3333333,0,0,-1.3333333,0,1314.6667)"><g
     clip-path="url(#clipPath26)"
     id="g22" /></g>




<text
   id="text82"
   style="font-variant:normal;font-weight:500;font-stretch:normal;font-size:52px;font-family:'Avenir Next Medium';-inkscape-font-specification:AvenirNext-Medium;writing-mode:lr-tb;display:inline;fill:#9e2871;fill-opacity:1;fill-rule:nonzero;stroke:none"
   transform="matrix(1.3333333,0,0,1.3333333,491.66345,1092)"><tspan
     id="tspan76"
     y="0"
     x="0 37.023998 66.612 79.612 111.54 142.79201 172.38 203.632 240.604 272.53201 309.34799">US RESEARCH</tspan><tspan
     id="tspan78"
     y="52"
     x="-210.028 -180.44 -136.29201 -106.756 -77.167999 -26.416 10.556 42.484001 73.736 86.736 117.988 158.132 198.588 212.67999 252.82401 284.07599 315.328">SOFTWARE ENGINEER</tspan><tspan
     id="tspan80"
     y="104"
     x="-5.7719998 31.200001 60.787998 90.375999 134.524 171.34 185.43201 219.284 248.87199 262.96399 307.112">ASSOCIATION</tspan></text>







<g
   id="g38"
   style="display:inline"
   transform="matrix(1.3333333,0,0,-1.3333333,0,1314.6667)"><g
     clip-path="url(#clipPath44)"
     id="g40"><g
       transform="translate(604,311.2539)"
       id="g46"><path
         id="path48"
         style="fill:#ffffff;fill-opacity:1;fill-rule:nonzero;stroke:none"
         d="m 0,0 h -406 c -26.95,0 -49,22.05 -49,49 v 416.835 c 0,26.95 22.05,49 49,43 H 0 c 26.95,6 49,-16.05 47,-57 V 35 C 49,22.05 26.95,0 0,0" /></g></g></g><g
   id="g50"
   style="display:inline"
   transform="matrix(1.3333333,0,0,-1.3333333,0,1314.6667)"><g
     clip-path="url(#clipPath56)"
     id="g52"><g
       id="g58"><g
         id="g60"><path
           id="path68"
           style="fill:url(#linearGradient66);stroke:none"
           d="m 181,841 c -26.951,0 -49,-22.049 -49,-49 v 0 -416.835 c 0,-26.95 22.049,-49 49,-49 v 0 h 406 c 26.95,0 49,22.05 49,49 v 0 V 792 c 0,26.951 -22.05,49 -49,49 v 0 z" /></g></g></g></g><text
   id="text74"
   style="font-variant:normal;font-weight:bold;font-stretch:normal;font-size:202.40480042px;font-family:'Avenir Next Demi Bold';-inkscape-font-specification:AvenirNext-DemiBold;writing-mode:lr-tb;display:inline;fill:#ffffff;fill-opacity:1;fill-rule:nonzero;stroke:none"
   transform="matrix(1.3052668,0,0,1.3333333,336.57812,496.20445)"><tspan
     id="tspan70"
     y="0"
     x="0 148.56512">US</tspan><tspan
     id="tspan72"
     y="199.36873"
     x="-55.256512 76.104202 196.33266">RSE</tspan></text>


</g></svg>