<?xml version="1.0" encoding="UTF-8" standalone="no"?>
<!-- Created with Inkscape (http://www.inkscape.org/) -->

<svg
   version="1.1"
   id="svg2"
   xml:space="preserve"
   width="132.88513"
   height="173.86389"
   viewBox="0 0 132.88514 173.8639"
   sodipodi:docname="USRSE_Pride_6ColorChevronsSquare_vectorized.svg"
   inkscape:version="1.3.2 (1:1.3.2+202311252150+091e20ef0f)"
   xmlns:inkscape="http://www.inkscape.org/namespaces/inkscape"
   xmlns:sodipodi="http://sodipodi.sourceforge.net/DTD/sodipodi-0.dtd"
   xmlns="http://www.w3.org/2000/svg"
   xmlns:svg="http://www.w3.org/2000/svg"
   xmlns:rdf="http://www.w3.org/1999/02/22-rdf-syntax-ns#"
   xmlns:cc="http://creativecommons.org/ns#"
   xmlns:dc="http://purl.org/dc/elements/1.1/"><sodipodi:namedview
     id="namedview1"
     pagecolor="#ffffff"
     bordercolor="#666666"
     borderopacity="1.0"
     inkscape:showpageshadow="2"
     inkscape:pageopacity="0.0"
     inkscape:pagecheckerboard="0"
     inkscape:deskcolor="#d1d1d1"
     inkscape:zoom="6.7639115"
     inkscape:cx="66.381708"
     inkscape:cy="86.931947"
     inkscape:window-width="2490"
     inkscape:window-height="1376"
     inkscape:window-x="70"
     inkscape:window-y="27"
     inkscape:window-maximized="1"
     inkscape:current-layer="layer2" /><metadata
     id="metadata8"><rdf:RDF><cc:Work
         rdf:about=""><dc:format>image/svg+xml</dc:format><dc:type
           rdf:resource="http://purl.org/dc/dcmitype/StillImage" /></cc:Work></rdf:RDF></metadata><defs
     id="defs6">
<clipPath
   clipPathUnits="userSpaceOnUse"
   id="clipPath12"><path
     style="fill:#9b2871;fill-opacity:1;fill-rule:nonzero;stroke:none;stroke-width:0.58154"
     d="m 8.6917093,1.9999752 c -4.799972,0 -8.6915204817,3.8923976 -8.6915204817,8.6924278 V 106.40967 L 25.935181,80.474634 c 1.626567,-1.625985 3.831998,-2.540259 6.13257,-2.540259 h 53.35826 V 1.9999752 Z M 11.249845,20.983792 h 3.969707 v 11.745512 c 0,0.860679 0.28699,1.289727 0.862133,1.289727 h 11.279548 c 0.551823,0 0.827996,-0.429048 0.827996,-1.289727 V 20.983792 h 3.969708 v 11.745512 c 0,1.434077 -0.451334,2.669309 -1.35621,3.705613 -0.904294,1.036885 -2.062198,1.554653 -3.473072,1.554653 H 16.080813 c -1.434659,0 -2.59768,-0.517768 -3.490926,-1.554653 -0.893245,-1.036304 -1.340042,-2.271536 -1.340042,-3.705613 z m 27.394308,0 h 14.689581 v 3.96969 H 38.612633 c -0.552462,0 -0.829741,0.431328 -0.829741,1.291425 0,0.838581 0.277279,1.257354 0.829741,1.257354 h 10.707952 c 1.414887,0 2.586399,0.527003 3.513955,1.58191 0.862423,1.01188 1.293112,2.232474 1.293112,3.661317 0,1.429425 -0.429642,2.649438 -1.289739,3.661317 -0.926393,1.054913 -2.096277,1.582765 -3.507093,1.582765 H 34.640425 V 34.019031 H 49.33082 c 0.550719,0 0.82631,-0.424495 0.82631,-1.273543 0,-0.848467 -0.275591,-1.273537 -0.82631,-1.273537 H 38.644153 c -1.41256,0 -2.580758,-0.529475 -3.507151,-1.587878 -0.882777,-0.992688 -1.323759,-2.205088 -1.323759,-3.639166 0,-1.434077 0.451566,-2.668994 1.357023,-3.706467 0.903713,-1.036304 2.061327,-1.554648 3.473887,-1.554648 z M 11.249845,41.901333 h 16.510033 c 1.521309,0 2.723177,0.595369 3.605954,1.786363 0.815901,1.081082 1.224956,2.39306 1.224956,3.936466 0,1.54457 -0.409055,2.857676 -1.224956,3.938171 -0.882777,1.190999 -2.084645,1.786362 -3.605954,1.786362 h -1.404709 -0.117588 l 4.99537,5.557568 h -5.425535 l -4.960419,-5.557568 h -5.627445 v 5.557568 h -3.969707 z m 27.824531,0 h 14.688709 v 3.96969 H 39.041984 c -0.552463,0 -0.828868,0.430479 -0.828868,1.290577 0,0.83858 0.276405,1.257353 0.828868,1.257353 h 10.709639 c 1.414305,0 2.585584,0.527585 3.513082,1.58191 0.862482,1.01188 1.29317,2.23248 1.29317,3.661323 0,1.429425 -0.429642,2.650868 -1.289739,3.662166 -0.926393,1.055495 -2.096335,1.581911 -3.507151,1.581911 H 35.07059 v -3.96969 h 14.690395 c 0.5513,0 0.826368,-0.425344 0.826368,-1.274387 0,-0.848472 -0.275068,-1.273543 -0.826368,-1.273543 H 39.074376 c -1.412037,0 -2.580758,-0.528887 -3.507151,-1.587871 -0.882777,-0.992689 -1.322945,-2.205095 -1.322945,-3.639172 0,-1.433496 0.451333,-2.668413 1.356151,-3.706462 0.903713,-1.036304 2.061908,-1.553805 3.473945,-1.553805 z m 17.138678,0 h 18.162595 v 3.96969 h -14.19376 v 2.54793 h 11.405625 v 3.96969 H 60.181889 v 2.54793 h 14.161368 v 3.96969 H 56.213054 Z m -40.993502,3.96969 v 3.507133 h 2.08453 9.050214 1.173897 c 0.726925,0 1.091259,-0.584517 1.091259,-1.753994 0,-1.168313 -0.364334,-1.753139 -1.091259,-1.753139 z"
     id="path13" /></clipPath></defs><g
     inkscape:groupmode="layer"
     id="layer3"
     inkscape:label="Layer 2"
     style="display:inline"><g
       inkscape:groupmode="layer"
       id="layer2"
       inkscape:label="Layer 1"
       transform="translate(0,-2)"><g
         id="g14"><g
           id="g3378"
           transform="matrix(0.58153987,0,0,-0.58153987,124.226,2.0004288)"
           style="display:inline;fill:#ee3124;fill-opacity:1"><path
             d="M 0,0 H -51.977 V -32.644 H 14.89 V -14.89 C 14.89,-6.666 8.223,0 0,0"
             style="fill:#ee3124;fill-opacity:1;fill-rule:nonzero;stroke:none"
             id="path3376" /></g><path
           d="M 93.999363,47.4592 H 132.88519 V 28.475412 H 93.999363 Z"
           style="display:inline;fill:#f57f29;fill-opacity:1;fill-rule:nonzero;stroke:none;stroke-width:0.58154"
           id="path3380"
           transform="translate(0,2)" /><path
           d="M 93.999363,75.934881 H 132.88519 V 56.951094 H 93.999363 Z"
           style="display:inline;fill:#fff000;fill-opacity:1;fill-rule:nonzero;stroke:none;stroke-width:0.58154"
           id="path3382"
           transform="translate(0,2)" /><g
           id="g3386"
           transform="matrix(0.58153987,0,0,-0.58153987,35.825662,87.426368)"
           style="display:inline;fill:#58b947;fill-opacity:1"><path
             d="M 0,0 C -3.955,0 -7.749,-1.571 -10.545,-4.368 L -38.821,-32.644 H 166.9 V 0 H 85.291 Z"
             style="fill:#58b947;fill-opacity:1;fill-rule:nonzero;stroke:none"
             id="path3384" /></g><g
           id="g3390"
           transform="matrix(0.58153987,0,0,-0.58153987,1.3066431e-4,126.19362)"
           style="display:inline;fill:#0054a6;fill-opacity:1"><path
             d="m 0,0 c 0,-8.254 6.691,-14.946 14.946,-14.946 h 198.669 c 8.224,0 14.89,6.666 14.89,14.89 V 17.698 H 0 Z"
             style="fill:#0054a6;fill-opacity:1;fill-rule:nonzero;stroke:none"
             id="path3388" /></g><g
           id="g3402"
           transform="matrix(0.58153987,0,0,-0.58153987,1.3066431e-4,154.2193)"
           style="display:inline"><path
             d="M 0,0 V 15.588 H 7.123 V -0.826 c 0,-2.994 2.065,-4.852 4.491,-4.852 2.942,0 4.8,2.168 4.8,5.058 v 16.208 h 7.123 v -26.995 h -6.968 v 3.148 C 15.433,-10.117 12.852,-12.078 9.342,-12.078 1.652,-12.078 0,-5.729 0,0"
             style="fill:#9d2375;fill-opacity:1;fill-rule:nonzero;stroke:none"
             id="path3400" /></g><g
           id="g3406"
           transform="matrix(0.58153987,0,0,-0.58153987,15.759221,158.33161)"
           style="display:inline"><path
             d="m 0,0 4.181,3.716 c 1.342,-1.548 3.148,-2.942 6.194,-2.942 2.013,0 3.303,0.878 3.303,2.426 0,4.13 -12.749,2.53 -12.749,12.13 0,5.007 4.284,8 9.807,8 5.11,0 7.949,-2.683 9.239,-4.8 l -4.697,-3.51 c -0.826,1.033 -2.322,2.581 -4.852,2.581 -1.651,0 -2.787,-0.826 -2.787,-2.168 0,-4.284 12.801,-2.219 12.801,-11.871 0,-5.265 -4.542,-8.569 -10.375,-8.569 C 4.749,-5.007 1.445,-2.323 0,0"
             style="fill:#9d2375;fill-opacity:1;fill-rule:nonzero;stroke:none"
             id="path3404" /></g><path
           d="m 29.597312,147.86671 h 8.344515 v 3.72186 h -8.344515 z"
           style="display:inline;fill:#9d2375;fill-opacity:1;fill-rule:nonzero;stroke:none;stroke-width:0.58154"
           id="path3408"
           transform="translate(0,2)" /><g
           id="g3412"
           transform="matrix(0.58153987,0,0,-0.58153987,49.317968,148.96631)"
           style="display:inline"><path
             d="M 0,0 C -5.316,0 -7.278,-3.303 -7.278,-8.672 V -20.44 h -7.123 V 6.555 h 6.968 V 2.632 C -6.245,5.316 -3.561,7.226 0,7.226 Z"
             style="fill:#9d2375;fill-opacity:1;fill-rule:nonzero;stroke:none"
             id="path3410" /></g><g
           id="g3416"
           transform="matrix(0.58153987,0,0,-0.58153987,50.698428,158.33161)"
           style="display:inline"><path
             d="m 0,0 4.181,3.716 c 1.342,-1.548 3.148,-2.942 6.194,-2.942 2.013,0 3.303,0.878 3.303,2.426 0,4.13 -12.749,2.53 -12.749,12.13 0,5.007 4.284,8 9.807,8 5.11,0 7.949,-2.683 9.24,-4.8 l -4.698,-3.51 c -0.826,1.033 -2.322,2.581 -4.852,2.581 -1.651,0 -2.787,-0.826 -2.787,-2.168 0,-4.284 12.801,-2.219 12.801,-11.871 0,-5.265 -4.542,-8.569 -10.375,-8.569 C 4.749,-5.007 1.445,-2.323 0,0"
             style="fill:#9d2375;fill-opacity:1;fill-rule:nonzero;stroke:none"
             id="path3414" /></g><g
           id="g3420"
           transform="matrix(0.58153987,0,0,-0.58153987,75.072508,151.33783)"
           style="display:inline"><path
             d="m 0,0 c -0.155,3.303 -2.529,5.471 -5.781,5.471 -3.355,0 -5.523,-2.374 -5.833,-5.471 z m -5.884,11.304 c 8.361,0 13.11,-5.575 13.11,-14.401 0,-0.516 0,-1.032 -0.051,-1.548 H -11.82 c 0.155,-3.613 3.045,-6.194 7.02,-6.194 3.664,0 5.781,2.167 6.555,3.303 l 4.697,-3.561 c -1.033,-1.91 -4.645,-5.936 -11.356,-5.936 -8.671,0 -14.194,5.987 -14.194,14.091 0,8.156 5.523,14.246 13.214,14.246"
             style="fill:#9d2375;fill-opacity:1;fill-rule:nonzero;stroke:none"
             id="path3418" /></g><g
           id="g3424"
           transform="matrix(0.58153987,0,0,-0.58153987,80.475653,158.72182)"
           style="display:inline"><path
             d="M 0,0 C 0,2.426 1.91,4.439 4.388,4.439 6.865,4.439 8.775,2.426 8.775,0 8.775,-2.374 6.865,-4.336 4.388,-4.336 1.91,-4.336 0,-2.374 0,0"
             style="fill:#9d2375;fill-opacity:1;fill-rule:nonzero;stroke:none"
             id="path3422" /></g><g
           id="g3428"
           transform="matrix(0.58153987,0,0,-0.58153987,95.904255,157.58113)"
           style="display:inline"><path
             d="m 0,0 c 4.284,0 7.433,3.2 7.433,7.794 0,4.594 -3.149,7.948 -7.433,7.948 -4.284,0 -7.381,-3.303 -7.381,-7.948 C -7.381,3.2 -4.233,0 0,0 m 0,22.04 c 8.259,0 14.556,-6.091 14.556,-14.246 0,-8.155 -6.091,-14.091 -14.556,-14.091 -8.413,0 -14.504,5.936 -14.504,14.091 0,8.207 6.297,14.246 14.504,14.246"
             style="fill:#9d2375;fill-opacity:1;fill-rule:nonzero;stroke:none"
             id="path3426" /></g><g
           id="g3432"
           transform="matrix(0.58153987,0,0,-0.58153987,115.11519,148.96631)"
           style="display:inline"><path
             d="M 0,0 C -5.316,0 -7.278,-3.303 -7.278,-8.672 V -20.44 h -7.123 V 6.555 h 6.968 V 2.632 C -6.245,5.316 -3.562,7.226 0,7.226 Z"
             style="fill:#9d2375;fill-opacity:1;fill-rule:nonzero;stroke:none"
             id="path3430" /></g><g
           id="g3436"
           transform="matrix(0.58153987,0,0,-0.58153987,124.81045,148.42624)"
           style="display:inline"><path
             d="m 0,0 c -4.026,0 -6.865,-3.097 -6.865,-7.846 0,-4.748 2.891,-7.896 6.916,-7.896 4.13,0 6.917,3.096 6.917,7.896 C 6.968,-3.252 4.181,0 0,0 m -8.362,-23.33 c 0.878,-0.465 3.974,-1.858 7.691,-1.858 3.871,0 7.433,1.187 7.433,5.368 v 1.239 c -0.568,-0.775 -3.2,-3.459 -7.898,-3.459 -7.794,0 -12.904,5.833 -12.904,14.143 0,8.31 5.472,14.194 13.163,14.194 4.542,0 7.277,-2.477 8.052,-3.51 v 2.839 h 6.71 v -23.588 c 0,-10.065 -6.555,-13.317 -14.505,-13.317 -3.716,0 -7.484,1.135 -9.91,2.477 z"
             style="fill:#9d2375;fill-opacity:1;fill-rule:nonzero;stroke:none"
             id="path3434" /></g><g
           id="g3440"
           transform="matrix(0.58153987,0,0,-0.58153987,1.3066431e-4,172.74176)"
           style="display:inline"><path
             d="M 0,0 V 5.156 H 1.664 V 0 c 0,-1.05 0.601,-1.711 1.663,-1.711 1.062,0 1.664,0.661 1.664,1.711 V 5.156 H 6.654 V 0 C 6.654,-1.947 5.462,-3.256 3.327,-3.256 1.192,-3.256 0,-1.947 0,0"
             style="fill:#9d2375;fill-opacity:1;fill-rule:nonzero;stroke:none"
             id="path3438" /></g><g
           id="g3444"
           transform="matrix(0.58153987,0,0,-0.58153987,7.5940527,170.70416)"
           style="display:inline"><path
             d="m 0,0 -1.38,-0.625 c -0.177,0.389 -0.484,0.897 -1.204,0.897 -0.566,0 -0.897,-0.342 -0.897,-0.791 0,-1.369 3.587,-1.168 3.587,-3.728 0,-1.452 -1.038,-2.513 -2.761,-2.513 -1.769,0 -2.501,1.239 -2.737,1.911 l 1.404,0.685 c 0.224,-0.543 0.685,-1.051 1.428,-1.051 0.613,0 0.979,0.319 0.979,0.85 0,1.416 -3.563,1.18 -3.563,3.822 0,1.393 1.015,2.348 2.596,2.348 C -0.885,1.805 -0.201,0.602 0,0"
             style="fill:#9d2375;fill-opacity:1;fill-rule:nonzero;stroke:none"
             id="path3442" /></g><g
           id="g3448"
           transform="matrix(0.58153987,0,0,-0.58153987,11.462223,171.84991)"
           style="display:inline"><path
             d="m 0,0 c 0.602,0 1.133,0.377 1.133,1.109 0,0.661 -0.461,1.074 -1.216,1.074 H -0.779 V 0 Z m -2.442,3.622 h 2.489 c 1.805,0 2.796,-1.097 2.796,-2.454 0,-1.003 -0.495,-1.77 -1.25,-2.182 l 1.958,-3.623 h -1.84 l -1.605,3.233 h -0.885 v -3.233 h -1.663 z"
             style="fill:#9d2375;fill-opacity:1;fill-rule:nonzero;stroke:none"
             id="path3446" /></g><g
           id="g3452"
           transform="matrix(0.58153987,0,0,-0.58153987,16.312033,172.37126)"
           style="display:inline"><path
             d="M 0,0 C -0.035,0.755 -0.578,1.25 -1.322,1.25 -2.088,1.25 -2.584,0.708 -2.655,0 Z m -1.345,2.584 c 1.911,0 2.997,-1.274 2.997,-3.292 0,-0.118 0,-0.236 -0.012,-0.354 h -4.342 c 0.035,-0.826 0.696,-1.416 1.605,-1.416 0.837,0 1.321,0.496 1.498,0.755 l 1.074,-0.814 c -0.236,-0.436 -1.062,-1.356 -2.596,-1.356 -1.982,0 -3.244,1.368 -3.244,3.22 0,1.865 1.262,3.257 3.02,3.257"
             style="fill:#9d2375;fill-opacity:1;fill-rule:nonzero;stroke:none"
             id="path3450" /></g><g
           id="g3456"
           transform="matrix(0.58153987,0,0,-0.58153987,17.559611,173.97003)"
           style="display:inline"><path
             d="M 0,0 0.956,0.849 C 1.263,0.496 1.675,0.177 2.371,0.177 c 0.461,0 0.756,0.201 0.756,0.555 0,0.944 -2.915,0.578 -2.915,2.772 0,1.144 0.98,1.829 2.242,1.829 1.168,0 1.817,-0.614 2.112,-1.098 L 3.492,3.433 C 3.303,3.669 2.961,4.023 2.383,4.023 2.006,4.023 1.746,3.835 1.746,3.528 1.746,2.549 4.672,3.02 4.672,0.814 4.672,-0.389 3.634,-1.144 2.301,-1.144 1.085,-1.144 0.33,-0.531 0,0"
             style="fill:#9d2375;fill-opacity:1;fill-rule:nonzero;stroke:none"
             id="path3454" /></g><g
           id="g3460"
           transform="matrix(0.58153987,0,0,-0.58153987,23.130065,172.37126)"
           style="display:inline"><path
             d="M 0,0 C -0.035,0.755 -0.578,1.25 -1.322,1.25 -2.088,1.25 -2.584,0.708 -2.655,0 Z m -1.345,2.584 c 1.911,0 2.997,-1.274 2.997,-3.292 0,-0.118 0,-0.236 -0.012,-0.354 h -4.342 c 0.035,-0.826 0.696,-1.416 1.605,-1.416 0.837,0 1.321,0.496 1.498,0.755 l 1.074,-0.814 c -0.236,-0.436 -1.062,-1.356 -2.596,-1.356 -1.982,0 -3.244,1.368 -3.244,3.22 0,1.865 1.262,3.257 3.02,3.257"
             style="fill:#9d2375;fill-opacity:1;fill-rule:nonzero;stroke:none"
             id="path3458" /></g><g
           id="g3464"
           transform="matrix(0.58153987,0,0,-0.58153987,25.983274,173.90146)"
           style="display:inline"><path
             d="m 0,0 c 0.614,0 1.062,0.33 1.062,0.85 0,0.542 -0.448,0.861 -1.074,0.861 -0.625,0 -1.062,-0.354 -1.062,-0.861 C -1.074,0.342 -0.613,0 0,0 m -0.307,2.844 c 0.626,0 1.109,-0.189 1.333,-0.343 v 0.401 c 0,0.543 -0.401,0.909 -1.12,0.909 -0.614,0 -1.18,-0.201 -1.64,-0.436 l -0.614,1.109 c 0.555,0.377 1.487,0.731 2.431,0.731 1.982,0 2.572,-1.038 2.572,-2.419 v -3.905 h -1.44 l -0.106,0.401 c -0.318,-0.342 -0.79,-0.554 -1.498,-0.554 -1.251,0 -2.313,0.767 -2.313,2.065 0,1.215 0.956,2.041 2.395,2.041"
             style="fill:#9d2375;fill-opacity:1;fill-rule:nonzero;stroke:none"
             id="path3462" /></g><g
           id="g3468"
           transform="matrix(0.58153987,0,0,-0.58153987,30.140121,171.82938)"
           style="display:inline"><path
             d="m 0,0 c -1.215,0 -1.664,-0.755 -1.664,-1.982 v -2.69 h -1.628 v 6.17 h 1.593 V 0.602 c 0.271,0.614 0.885,1.05 1.699,1.05 z"
             style="fill:#9d2375;fill-opacity:1;fill-rule:nonzero;stroke:none"
             id="path3466" /></g><g
           id="g3472"
           transform="matrix(0.58153987,0,0,-0.58153987,33.274912,173.47601)"
           style="display:inline"><path
             d="m 0,0 0.437,-1.333 c -0.354,-0.283 -1.027,-0.661 -1.923,-0.661 -1.924,0 -3.292,1.345 -3.292,3.221 0,1.876 1.404,3.257 3.28,3.257 0.908,0 1.545,-0.355 1.946,-0.662 l -0.46,-1.368 c -0.271,0.248 -0.743,0.59 -1.439,0.59 -1.05,0 -1.699,-0.814 -1.699,-1.805 0,-1.05 0.731,-1.793 1.758,-1.793 0.625,0 1.121,0.33 1.392,0.554"
             style="fill:#9d2375;fill-opacity:1;fill-rule:nonzero;stroke:none"
             id="path3470" /></g><g
           id="g3476"
           transform="matrix(0.58153987,0,0,-0.58153987,37.191699,172.47425)"
           style="display:inline"><path
             d="m 0,0 v -3.563 h -1.616 v 3.752 c 0,0.684 -0.472,1.109 -1.027,1.109 -0.684,0 -1.121,-0.496 -1.121,-1.157 v -3.704 h -1.628 v 8.53 h 1.628 V 1.888 c 0.26,0.424 0.826,0.873 1.628,0.873 C -0.366,2.761 0,1.31 0,0"
             style="fill:#9d2375;fill-opacity:1;fill-rule:nonzero;stroke:none"
             id="path3474" /></g><g
           id="g3480"
           transform="matrix(0.58153987,0,0,-0.58153987,42.5282,170.70416)"
           style="display:inline"><path
             d="m 0,0 -1.38,-0.625 c -0.177,0.389 -0.484,0.897 -1.204,0.897 -0.566,0 -0.897,-0.342 -0.897,-0.791 0,-1.369 3.587,-1.168 3.587,-3.728 0,-1.452 -1.038,-2.513 -2.761,-2.513 -1.769,0 -2.501,1.239 -2.737,1.911 l 1.404,0.685 c 0.224,-0.543 0.685,-1.051 1.428,-1.051 0.613,0 0.979,0.319 0.979,0.85 0,1.416 -3.563,1.18 -3.563,3.822 0,1.393 1.015,2.348 2.596,2.348 C -0.885,1.805 -0.201,0.602 0,0"
             style="fill:#9d2375;fill-opacity:1;fill-rule:nonzero;stroke:none"
             id="path3478" /></g><g
           id="g3484"
           transform="matrix(0.58153987,0,0,-0.58153987,44.914781,173.79847)"
           style="display:inline"><path
             d="M 0,0 C 0.979,0 1.699,0.732 1.699,1.781 1.699,2.831 0.979,3.598 0,3.598 -0.979,3.598 -1.687,2.843 -1.687,1.781 -1.687,0.732 -0.967,0 0,0 m 0,5.038 c 1.888,0 3.327,-1.392 3.327,-3.257 0,-1.864 -1.392,-3.22 -3.327,-3.22 -1.923,0 -3.315,1.356 -3.315,3.22 0,1.876 1.439,3.257 3.315,3.257"
             style="fill:#9d2375;fill-opacity:1;fill-rule:nonzero;stroke:none"
             id="path3482" /></g><g
           id="g3488"
           transform="matrix(0.58153987,0,0,-0.58153987,47.555205,171.72639)"
           style="display:inline"><path
             d="M 0,0 H -0.661 V 1.321 H 0 V 1.545 C 0,3.15 1.074,3.681 2.277,3.681 2.513,3.681 2.69,3.669 2.808,3.657 V 2.289 C 2.772,2.289 2.631,2.312 2.489,2.312 1.923,2.312 1.628,2.053 1.628,1.51 V 1.321 H 2.702 V 0 H 1.628 V -4.849 H 0 Z"
             style="fill:#9d2375;fill-opacity:1;fill-rule:nonzero;stroke:none"
             id="path3486" /></g><g
           id="g3492"
           transform="matrix(0.58153987,0,0,-0.58153987,49.921607,170.20328)"
           style="display:inline"><path
             d="M 0,0 H 1.604 V -1.298 H 2.761 V -2.619 H 1.604 v -2.383 c 0,-0.921 0.284,-1.109 0.909,-1.109 0.106,0 0.165,0 0.295,0.012 v -1.393 c 0,0 -0.248,-0.059 -0.696,-0.059 -1.475,0 -2.124,0.826 -2.124,2.501 v 2.431 h -0.649 v 1.321 H 0 Z"
             style="fill:#9d2375;fill-opacity:1;fill-rule:nonzero;stroke:none"
             id="path3490" /></g><g
           id="g3496"
           transform="matrix(0.58153987,0,0,-0.58153987,54.792294,172.2478)"
           style="display:inline"><path
             d="m 0,0 -1.145,-3.953 h -1.816 l -1.841,6.171 h 1.77 l 1.085,-4.377 1.18,4.377 h 1.534 l 1.168,-4.377 1.097,4.377 h 1.77 L 2.949,-3.953 H 1.133 Z"
             style="fill:#9d2375;fill-opacity:1;fill-rule:nonzero;stroke:none"
             id="path3494" /></g><g
           id="g3500"
           transform="matrix(0.58153987,0,0,-0.58153987,59.367094,173.90146)"
           style="display:inline"><path
             d="m 0,0 c 0.614,0 1.062,0.33 1.062,0.85 0,0.542 -0.448,0.861 -1.074,0.861 -0.625,0 -1.062,-0.354 -1.062,-0.861 C -1.074,0.342 -0.613,0 0,0 m -0.307,2.844 c 0.626,0 1.109,-0.189 1.333,-0.343 v 0.401 c 0,0.543 -0.401,0.909 -1.12,0.909 -0.614,0 -1.18,-0.201 -1.64,-0.436 l -0.614,1.109 c 0.555,0.377 1.487,0.731 2.431,0.731 1.982,0 2.572,-1.038 2.572,-2.419 v -3.905 h -1.44 l -0.106,0.401 c -0.318,-0.342 -0.79,-0.554 -1.498,-0.554 -1.251,0 -2.313,0.767 -2.313,2.065 0,1.215 0.956,2.041 2.395,2.041"
             style="fill:#9d2375;fill-opacity:1;fill-rule:nonzero;stroke:none"
             id="path3498" /></g><g
           id="g3504"
           transform="matrix(0.58153987,0,0,-0.58153987,63.523999,171.82938)"
           style="display:inline"><path
             d="m 0,0 c -1.215,0 -1.664,-0.755 -1.664,-1.982 v -2.69 h -1.628 v 6.17 h 1.593 V 0.602 c 0.271,0.614 0.885,1.05 1.699,1.05 z"
             style="fill:#9d2375;fill-opacity:1;fill-rule:nonzero;stroke:none"
             id="path3502" /></g><g
           id="g3508"
           transform="matrix(0.58153987,0,0,-0.58153987,66.288348,172.37126)"
           style="display:inline"><path
             d="M 0,0 C -0.035,0.755 -0.578,1.25 -1.322,1.25 -2.088,1.25 -2.584,0.708 -2.655,0 Z m -1.345,2.584 c 1.911,0 2.997,-1.274 2.997,-3.292 0,-0.118 0,-0.236 -0.012,-0.354 h -4.342 c 0.035,-0.826 0.696,-1.416 1.605,-1.416 0.837,0 1.321,0.496 1.498,0.755 l 1.073,-0.814 c -0.235,-0.436 -1.061,-1.356 -2.595,-1.356 -1.982,0 -3.244,1.368 -3.244,3.22 0,1.865 1.262,3.257 3.02,3.257"
             style="fill:#9d2375;fill-opacity:1;fill-rule:nonzero;stroke:none"
             id="path3506" /></g><g
           id="g3512"
           transform="matrix(0.58153987,0,0,-0.58153987,69.566314,169.74345)"
           style="display:inline"><path
             d="M 0,0 H 4.248 V -1.498 H 1.664 V -3.339 H 3.882 V -4.814 H 1.664 v -1.958 h 2.69 V -8.259 H 0 Z"
             style="fill:#9d2375;fill-opacity:1;fill-rule:nonzero;stroke:none"
             id="path3510" /></g><g
           id="g3516"
           transform="matrix(0.58153987,0,0,-0.58153987,75.905157,172.47425)"
           style="display:inline"><path
             d="m 0,0 v -3.563 h -1.628 v 3.752 c 0,0.684 -0.472,1.109 -1.027,1.109 -0.672,0 -1.097,-0.496 -1.097,-1.157 V -3.563 H -5.38 v 6.17 h 1.593 V 1.888 c 0.259,0.424 0.849,0.873 1.651,0.873 C -0.378,2.761 0,1.31 0,0"
             style="fill:#9d2375;fill-opacity:1;fill-rule:nonzero;stroke:none"
             id="path3514" /></g><g
           id="g3520"
           transform="matrix(0.58153987,0,0,-0.58153987,78.27784,171.70586)"
           style="display:inline"><path
             d="m 0,0 c -0.92,0 -1.569,-0.708 -1.569,-1.793 0,-1.085 0.661,-1.805 1.581,-1.805 0.944,0 1.581,0.707 1.581,1.805 C 1.593,-0.743 0.956,0 0,0 m -1.911,-5.333 c 0.201,-0.106 0.908,-0.424 1.758,-0.424 0.885,0 1.699,0.271 1.699,1.226 v 0.284 c -0.13,-0.177 -0.732,-0.791 -1.805,-0.791 -1.782,0 -2.95,1.333 -2.95,3.233 0,1.899 1.251,3.245 3.009,3.245 1.038,0 1.663,-0.567 1.84,-0.803 v 0.649 h 1.534 v -5.392 c 0,-2.3 -1.498,-3.044 -3.315,-3.044 -0.85,0 -1.711,0.26 -2.266,0.567 z"
             style="fill:#9d2375;fill-opacity:1;fill-rule:nonzero;stroke:none"
             id="path3518" /></g><path
           d="m 80.836208,168.958 h 0.946747 v 3.5881 h -0.946747 z m 0.466395,-1.40675 c 0.315776,0 0.555952,0.2332 0.555952,0.542 0,0.3088 -0.240176,0.54258 -0.555952,0.54258 -0.308798,0 -0.548974,-0.23378 -0.548974,-0.54258 0,-0.3088 0.240176,-0.542 0.548974,-0.542"
           style="display:inline;fill:#9d2375;fill-opacity:1;fill-rule:nonzero;stroke:none;stroke-width:0.58154"
           id="path3522"
           transform="translate(0,2)" /><g
           id="g3526"
           transform="matrix(0.58153987,0,0,-0.58153987,85.658918,172.47425)"
           style="display:inline"><path
             d="m 0,0 v -3.563 h -1.628 v 3.752 c 0,0.684 -0.472,1.109 -1.027,1.109 -0.672,0 -1.097,-0.496 -1.097,-1.157 V -3.563 H -5.38 v 6.17 h 1.593 V 1.888 c 0.259,0.424 0.849,0.873 1.651,0.873 C -0.378,2.761 0,1.31 0,0"
             style="fill:#9d2375;fill-opacity:1;fill-rule:nonzero;stroke:none"
             id="path3524" /></g><g
           id="g3530"
           transform="matrix(0.58153987,0,0,-0.58153987,88.717992,172.37126)"
           style="display:inline"><path
             d="M 0,0 C -0.035,0.755 -0.578,1.25 -1.321,1.25 -2.088,1.25 -2.584,0.708 -2.654,0 Z m -1.345,2.584 c 1.912,0 2.997,-1.274 2.997,-3.292 0,-0.118 0,-0.236 -0.012,-0.354 h -4.342 c 0.036,-0.826 0.697,-1.416 1.605,-1.416 0.838,0 1.321,0.496 1.498,0.755 l 1.074,-0.814 c -0.236,-0.436 -1.062,-1.356 -2.596,-1.356 -1.982,0 -3.244,1.368 -3.244,3.22 0,1.865 1.262,3.257 3.02,3.257"
             style="fill:#9d2375;fill-opacity:1;fill-rule:nonzero;stroke:none"
             id="path3528" /></g><g
           id="g3534"
           transform="matrix(0.58153987,0,0,-0.58153987,92.552259,172.37126)"
           style="display:inline"><path
             d="M 0,0 C -0.035,0.755 -0.578,1.25 -1.321,1.25 -2.088,1.25 -2.584,0.708 -2.654,0 Z m -1.345,2.584 c 1.912,0 2.997,-1.274 2.997,-3.292 0,-0.118 0,-0.236 -0.012,-0.354 h -4.342 c 0.036,-0.826 0.697,-1.416 1.605,-1.416 0.838,0 1.321,0.496 1.498,0.755 l 1.074,-0.814 c -0.236,-0.436 -1.062,-1.356 -2.596,-1.356 -1.982,0 -3.244,1.368 -3.244,3.22 0,1.865 1.262,3.257 3.02,3.257"
             style="fill:#9d2375;fill-opacity:1;fill-rule:nonzero;stroke:none"
             id="path3532" /></g><g
           id="g3538"
           transform="matrix(0.58153987,0,0,-0.58153987,95.954267,171.82938)"
           style="display:inline"><path
             d="m 0,0 c -1.215,0 -1.663,-0.755 -1.663,-1.982 v -2.69 h -1.628 v 6.17 h 1.592 V 0.602 c 0.272,0.614 0.885,1.05 1.699,1.05 z"
             style="fill:#9d2375;fill-opacity:1;fill-rule:nonzero;stroke:none"
             id="path3536" /></g><g
           id="g3542"
           transform="matrix(0.58153987,0,0,-0.58153987,100.10419,170.77958)"
           style="display:inline"><path
             d="m 0,0 -0.956,-2.973 h 1.923 z m -1.404,-4.353 -0.72,-2.124 h -1.675 l 2.926,8.259 H 0.873 L 3.799,-6.477 H 2.124 l -0.72,2.124 z"
             style="fill:#9d2375;fill-opacity:1;fill-rule:nonzero;stroke:none"
             id="path3540" /></g><g
           id="g3546"
           transform="matrix(0.58153987,0,0,-0.58153987,102.49735,173.97003)"
           style="display:inline"><path
             d="m 0,0 0.956,0.849 c 0.307,-0.353 0.72,-0.672 1.415,-0.672 0.46,0 0.756,0.201 0.756,0.555 0,0.944 -2.915,0.578 -2.915,2.772 0,1.144 0.98,1.829 2.242,1.829 1.168,0 1.817,-0.614 2.112,-1.098 L 3.492,3.433 C 3.304,3.669 2.962,4.023 2.383,4.023 2.006,4.023 1.746,3.835 1.746,3.528 1.746,2.549 4.672,3.02 4.672,0.814 4.672,-0.389 3.634,-1.144 2.301,-1.144 1.085,-1.144 0.33,-0.531 0,0"
             style="fill:#9d2375;fill-opacity:1;fill-rule:nonzero;stroke:none"
             id="path3544" /></g><g
           id="g3550"
           transform="matrix(0.58153987,0,0,-0.58153987,105.48123,173.97003)"
           style="display:inline"><path
             d="m 0,0 0.956,0.849 c 0.307,-0.353 0.72,-0.672 1.415,-0.672 0.46,0 0.756,0.201 0.756,0.555 0,0.944 -2.915,0.578 -2.915,2.772 0,1.144 0.98,1.829 2.242,1.829 1.168,0 1.817,-0.614 2.112,-1.098 L 3.492,3.433 C 3.304,3.669 2.962,4.023 2.383,4.023 2.006,4.023 1.746,3.835 1.746,3.528 1.746,2.549 4.672,3.02 4.672,0.814 4.672,-0.389 3.634,-1.144 2.301,-1.144 1.085,-1.144 0.33,-0.531 0,0"
             style="fill:#9d2375;fill-opacity:1;fill-rule:nonzero;stroke:none"
             id="path3548" /></g><g
           id="g3554"
           transform="matrix(0.58153987,0,0,-0.58153987,110.43397,173.79847)"
           style="display:inline"><path
             d="M 0,0 C 0.98,0 1.699,0.732 1.699,1.781 1.699,2.831 0.98,3.598 0,3.598 -0.979,3.598 -1.687,2.843 -1.687,1.781 -1.687,0.732 -0.967,0 0,0 m 0,5.038 c 1.888,0 3.327,-1.392 3.327,-3.257 0,-1.864 -1.392,-3.22 -3.327,-3.22 -1.923,0 -3.315,1.356 -3.315,3.22 0,1.876 1.439,3.257 3.315,3.257"
             style="fill:#9d2375;fill-opacity:1;fill-rule:nonzero;stroke:none"
             id="path3552" /></g><g
           id="g3558"
           transform="matrix(0.58153987,0,0,-0.58153987,115.48965,173.47601)"
           style="display:inline"><path
             d="m 0,0 0.437,-1.333 c -0.354,-0.283 -1.027,-0.661 -1.924,-0.661 -1.923,0 -3.291,1.345 -3.291,3.221 0,1.876 1.404,3.257 3.28,3.257 0.908,0 1.545,-0.355 1.946,-0.662 l -0.46,-1.368 c -0.271,0.248 -0.743,0.59 -1.439,0.59 -1.05,0 -1.699,-0.814 -1.699,-1.805 0,-1.05 0.732,-1.793 1.758,-1.793 0.625,0 1.121,0.33 1.392,0.554"
             style="fill:#9d2375;fill-opacity:1;fill-rule:nonzero;stroke:none"
             id="path3556" /></g><path
           d="m 116.27118,168.958 h 0.94674 v 3.5881 h -0.94674 z m 0.46639,-1.40675 c 0.3152,0 0.55537,0.2332 0.55537,0.542 0,0.3088 -0.24017,0.54258 -0.55537,0.54258 -0.3088,0 -0.54897,-0.23378 -0.54897,-0.54258 0,-0.3088 0.24017,-0.542 0.54897,-0.542"
           style="display:inline;fill:#9d2375;fill-opacity:1;fill-rule:nonzero;stroke:none;stroke-width:0.58154"
           id="path3560"
           transform="translate(0,2)" /><g
           id="g3564"
           transform="matrix(0.58153987,0,0,-0.58153987,119.33054,173.90146)"
           style="display:inline"><path
             d="m 0,0 c 0.613,0 1.062,0.33 1.062,0.85 0,0.542 -0.449,0.861 -1.074,0.861 -0.625,0 -1.062,-0.354 -1.062,-0.861 C -1.074,0.342 -0.614,0 0,0 m -0.307,2.844 c 0.626,0 1.109,-0.189 1.333,-0.343 v 0.401 c 0,0.543 -0.401,0.909 -1.12,0.909 -0.614,0 -1.18,-0.201 -1.64,-0.436 l -0.614,1.109 c 0.554,0.377 1.487,0.731 2.43,0.731 1.983,0 2.572,-1.038 2.572,-2.419 V -1.109 H 1.215 L 1.109,-0.708 C 0.79,-1.05 0.319,-1.262 -0.39,-1.262 c -1.25,0 -2.312,0.767 -2.312,2.065 0,1.215 0.955,2.041 2.395,2.041"
             style="fill:#9d2375;fill-opacity:1;fill-rule:nonzero;stroke:none"
             id="path3562" /></g><g
           id="g3568"
           transform="matrix(0.58153987,0,0,-0.58153987,121.66223,170.20328)"
           style="display:inline"><path
             d="M 0,0 H 1.605 V -1.298 H 2.761 V -2.619 H 1.605 v -2.383 c 0,-0.921 0.283,-1.109 0.908,-1.109 0.107,0 0.165,0 0.295,0.012 v -1.393 c 0,0 -0.248,-0.059 -0.696,-0.059 -1.475,0 -2.124,0.826 -2.124,2.501 v 2.431 h -0.649 v 1.321 H 0 Z"
             style="fill:#9d2375;fill-opacity:1;fill-rule:nonzero;stroke:none"
             id="path3566" /></g><path
           d="m 123.85736,168.958 h 0.94675 v 3.5881 h -0.94675 z m 0.4664,-1.40675 c 0.31578,0 0.55595,0.2332 0.55595,0.542 0,0.3088 -0.24017,0.54258 -0.55595,0.54258 -0.3088,0 -0.54897,-0.23378 -0.54897,-0.54258 0,-0.3088 0.24017,-0.542 0.54897,-0.542"
           style="display:inline;fill:#9d2375;fill-opacity:1;fill-rule:nonzero;stroke:none;stroke-width:0.58154"
           id="path3570"
           transform="translate(0,2)" /><g
           id="g3574"
           transform="matrix(0.58153987,0,0,-0.58153987,127.28025,173.79847)"
           style="display:inline"><path
             d="M 0,0 C 0.98,0 1.699,0.732 1.699,1.781 1.699,2.831 0.98,3.598 0,3.598 -0.979,3.598 -1.687,2.843 -1.687,1.781 -1.687,0.732 -0.967,0 0,0 m 0,5.038 c 1.888,0 3.327,-1.392 3.327,-3.257 0,-1.864 -1.392,-3.22 -3.327,-3.22 -1.923,0 -3.315,1.356 -3.315,3.22 0,1.876 1.439,3.257 3.315,3.257"
             style="fill:#9d2375;fill-opacity:1;fill-rule:nonzero;stroke:none"
             id="path3572" /></g><g
           id="g3578"
           transform="matrix(0.58153987,0,0,-0.58153987,132.88496,172.47425)"
           style="display:inline"><path
             d="m 0,0 v -3.563 h -1.628 v 3.752 c 0,0.684 -0.472,1.109 -1.027,1.109 -0.672,0 -1.097,-0.496 -1.097,-1.157 V -3.563 H -5.38 v 6.17 h 1.593 V 1.888 c 0.259,0.424 0.849,0.873 1.651,0.873 C -0.378,2.761 0,1.31 0,0"
             style="fill:#9d2375;fill-opacity:1;fill-rule:nonzero;stroke:none"
             id="path3576" /></g><g
           id="g13"><g
             id="g1"
             clip-path="url(#clipPath12)"><path
               style="fill:#fdfdfd"
               d="m -40.605886,40.034455 c 0,-40.22805038 0.0283,-73.14191 0.06288,-73.14191 0.03458,0 11.495136,16.437182 25.467894,36.5270706 l 25.405013,36.5270704 -25.467894,36.61484 -25.467893,36.614844 z"
               id="path12" /><path
               style="fill:#f297bf"
               d="M -40.605886,131.48496 V 113.17637 L -15.137992,76.561524 10.329903,39.946683 -15.140313,3.3258779 -40.610528,-33.294927 l 0.06474,-18.267215 0.06474,-18.267215 38.2018391,54.771981 L 35.922634,39.714606 -2.3416262,94.754078 -40.605886,149.79355 Z"
               id="path11" /><path
               style="fill:#7abee8"
               d="m -40.605886,167.83312 v -18.0384 L -2.3416262,94.754346 35.922634,39.713974 -2.3416262,-15.146375 -40.605886,-70.006724 v -18.435431 -18.435435 l 51.070377,73.411482 51.070378,73.411478 -50.883114,72.94477 c -27.985712,40.11962 -50.967382,72.95301 -51.070378,72.96308 -0.102995,0.0101 -0.187263,-8.09897 -0.187263,-18.0201 z"
               id="path10" /><path
               style="fill:#fdee00"
               d="M 95.597402,15.355107 78.620184,-9.0556651 H 178.80569 278.9912 V 15.355107 39.765879 h -83.20829 -83.20829 z"
               id="path9" /><path
               style="fill:#f37d27"
               d="M 61.515369,-33.645928 44.413298,-58.236191 H 161.70225 278.9912 v 24.590263 24.5902629 H 178.80432 78.61744 Z"
               id="path8" /><path
               style="fill:#56b746"
               d="M 95.722245,64.356142 112.82432,39.765879 h 83.08344 83.08344 V 64.356142 88.946404 H 178.80569 78.620174 Z"
               id="path7" /><path
               style="fill:#9d238e"
               d="m 27.807864,161.99923 16.602659,-23.8723 H 161.70086 278.9912 v 23.8723 23.8723 H 145.0982 11.205205 Z"
               id="path6" /><path
               style="fill:#ec3022"
               d="M 27.558179,-82.467472 10.705814,-106.69875 H 144.84851 278.9912 v 24.231278 24.231281 H 161.70087 44.410544 Z"
               id="path5" /><path
               style="fill:#583898"
               d="M -11.517558,144.58861 C 4.2745843,121.883 17.251607,103.30568 17.320271,103.30568 c 0.06866,0 -12.7960015,18.57732 -28.588144,41.28293 -15.792142,22.7056 -28.769165,41.28292 -28.837829,41.28292 -0.06866,0 12.796001,-18.57732 28.588144,-41.28292 z M 103.17079,137.8577 c 32.31738,-0.0502 85.1258,-0.0502 117.35206,0 32.22625,0.0502 5.78477,0.0913 -58.75886,0.0913 -64.543634,0 -90.910571,-0.0411 -58.5932,-0.0913 z"
               id="path4" /><path
               style="fill:#0052a4"
               d="M 61.640212,113.35718 78.61743,88.946404 H 178.80431 278.9912 v 24.410776 24.41077 H 161.8271 44.662994 Z"
               id="path3" /><path
               style="fill:#5e3716"
               d="m 10.766849,112.90867 50.748369,-72.962862 -50.997902,-73.32228 -50.997902,-73.322278 12.733717,0.019 12.733718,0.019 51.050978,73.226867 51.050979,73.226866 -50.801063,73.039287 -50.801064,73.03928 h -12.734099 -12.7341 z m 16.916173,48.91107 c 9.200131,-13.22849 16.783691,-24.05179 16.852355,-24.05179 0.06866,0 -7.402538,10.8233 -16.60267,24.05179 -9.200132,13.22848 -16.783692,24.05179 -16.852355,24.05179 -0.06866,0 7.402538,-10.82331 16.60267,-24.05179 z M 95.472559,64.356142 C 104.8787,50.831497 112.63081,39.765879 112.69947,39.765879 c 0.0687,0 -7.57109,11.065618 -16.977225,24.590263 -9.406139,13.524644 -17.15825,24.590262 -17.226914,24.590262 -0.06866,0 7.571089,-11.065618 16.977228,-24.590262 z M 46.502407,-54.915608 c -0.310576,-0.569365 -0.301744,-0.582062 0.09427,-0.135535 0.415913,0.468963 0.548179,0.763754 0.342679,0.763754 -0.05185,0 -0.248475,-0.282699 -0.436949,-0.628219 z m -1.498111,-2.153891 c -0.310576,-0.569366 -0.301745,-0.582063 0.09427,-0.135536 0.415913,0.468963 0.548178,0.763754 0.342679,0.763754 -0.05185,0 -0.248476,-0.282698 -0.436949,-0.628218 z m -26.436226,-38.052086 -8.113329,-11.756655 8.177191,11.664838 c 7.599591,10.840889 8.289543,11.848475 8.113329,11.848475 -0.03512,0 -3.714859,-5.290496 -8.177191,-11.756658 z"
               id="path2" /><path
               style="fill:#000000"
               d="m 36.287743,112.83225 50.801063,-73.039287 -51.050979,-73.226866 -51.050978,-73.226867 12.7809127,-0.019 12.7809133,-0.019 50.95124,73.099206 c 28.023181,40.2045641 50.951235,73.226166 50.951235,73.381337 0,0.15517 -22.817723,33.08884 -50.706056,73.185927 L 11.039033,185.87153 H -1.7371439 -14.513321 Z"
               id="path1" /></g></g></g></g></g></svg>
